<svg xmlns="http://www.w3.org/2000/svg" width="840" height="120" fill="none" viewBox="0 0 840 120"><path fill="#000" d="M0 0h840v120H0z"/><path fill="#fff" d="M666.888 75.147q-3.716 0-6.376-1.774-2.618-1.773-3.209-5.869l2.491-.464q.339 2.238 1.351 3.546a5.96 5.96 0 0 0 2.534 1.816 9.4 9.4 0 0 0 3.209.549q2.533 0 4.053-1.013 1.562-1.056 1.562-2.871 0-1.858-1.478-2.576-1.435-.718-3.842-1.14l-1.942-.338q-1.942-.338-3.504-1.013-1.562-.718-2.492-1.9-.886-1.182-.886-2.956 0-2.66 2.069-4.18 2.11-1.52 5.573-1.52 3.504 0 5.616 1.605 2.153 1.561 2.702 4.56l-2.365.506q-.422-2.448-2.026-3.462-1.563-1.013-3.927-1.013-2.322 0-3.716.886-1.392.888-1.393 2.618 0 1.69 1.267 2.491 1.266.76 3.462 1.14l1.942.338q2.111.338 3.8 1.013 1.69.634 2.66 1.816 1.014 1.182 1.014 3.125 0 2.913-2.196 4.517-2.196 1.563-5.953 1.563m-34.002-.591v-20.52h2.449v3.8h.507q.76-1.647 2.491-2.914 1.731-1.309 5.024-1.309 2.238 0 4.096.93 1.857.928 2.955 2.828 1.14 1.858 1.14 4.687v12.498h-2.533v-12.33q0-3.377-1.689-4.855t-4.518-1.478q-3.166 0-5.278 2.111-2.11 2.07-2.111 6.292v10.26zm-16.81.591q-3.124 0-5.489-1.31a9.6 9.6 0 0 1-3.631-3.715q-1.266-2.406-1.266-5.573v-.507q0-3.167 1.266-5.531 1.31-2.407 3.631-3.716 2.365-1.35 5.489-1.35 3.125 0 5.447 1.35a8.9 8.9 0 0 1 3.631 3.716q1.31 2.364 1.309 5.531v.507q0 3.166-1.309 5.573-1.267 2.364-3.631 3.716-2.322 1.309-5.447 1.309m0-2.28q3.631 0 5.743-2.28 2.11-2.323 2.111-6.123v-.338q0-3.8-2.111-6.08-2.112-2.322-5.743-2.322-3.588 0-5.742 2.323-2.11 2.28-2.111 6.08v.337q0 3.8 2.111 6.123 2.154 2.28 5.742 2.28m-19.351 1.689v-20.52h2.533v20.52zm1.267-24.067q-.93 0-1.563-.633-.633-.634-.633-1.563 0-.97.633-1.562.634-.633 1.563-.633.97 0 1.562.633.633.591.633 1.562 0 .93-.633 1.563-.591.633-1.562.633m-13.339 24.066q-1.647 0-2.491-.844-.802-.844-.802-2.364V56.316h-6.587v-2.28h6.587V46.35h2.533v7.685h7.178v2.28h-7.178v14.693q0 1.266 1.267 1.266h4.813v2.28zm-22.591.592q-2.998 0-5.362-1.267-2.322-1.309-3.674-3.716-1.35-2.406-1.351-5.657v-.423q0-3.293 1.351-5.658 1.352-2.406 3.674-3.673 2.364-1.308 5.362-1.309 2.955 0 4.982 1.14 2.069 1.098 3.209 2.914 1.182 1.774 1.478 3.757l-2.491.507a7.35 7.35 0 0 0-1.056-2.998q-.845-1.393-2.364-2.195-1.52-.845-3.758-.845t-4.011 1.056q-1.773 1.012-2.829 2.913-1.014 1.859-1.013 4.433v.338q0 2.576 1.013 4.476 1.056 1.858 2.829 2.913 1.773 1.014 4.011 1.014 3.378 0 5.151-1.732 1.773-1.773 2.196-4.306l2.491.506q-.38 1.985-1.605 3.8-1.182 1.774-3.251 2.914-2.027 1.097-4.982 1.097m-25.15.001q-3.167 0-5.531-1.31-2.322-1.35-3.631-3.757-1.31-2.407-1.309-5.531v-.507q0-3.167 1.309-5.531 1.308-2.407 3.589-3.716 2.322-1.35 5.277-1.35 2.872 0 5.067 1.224 2.238 1.182 3.505 3.462 1.266 2.239 1.266 5.362v1.351h-17.48q.127 3.843 2.322 5.954 2.238 2.069 5.616 2.069 2.871 0 4.433-1.31a8.6 8.6 0 0 0 2.449-3.208l2.28 1.013q-.633 1.393-1.773 2.745-1.098 1.308-2.871 2.195-1.773.844-4.518.844m-7.896-12.498h14.863q-.17-3.336-2.154-5.11-1.984-1.815-5.109-1.815-3.081 0-5.108 1.816-2.027 1.773-2.492 5.109M513.256 83v-2.28h2.955q1.267 0 1.267-1.267V54.036h2.533V79.79q0 1.52-.844 2.365-.802.844-2.449.844zm5.489-32.511q-.93 0-1.563-.633-.633-.634-.633-1.563 0-.97.633-1.562.634-.633 1.563-.633.97 0 1.562.633.633.591.633 1.562 0 .93-.633 1.563-.591.633-1.562.633m-18.161 24.658q-3.124 0-5.489-1.31a9.6 9.6 0 0 1-3.631-3.715q-1.266-2.406-1.266-5.573v-.507q0-3.167 1.266-5.531 1.31-2.407 3.631-3.716 2.365-1.35 5.489-1.35 3.125 0 5.447 1.35a8.9 8.9 0 0 1 3.631 3.716q1.31 2.364 1.309 5.531v.507q0 3.166-1.309 5.573a9.23 9.23 0 0 1-3.631 3.716q-2.322 1.309-5.447 1.309m0-2.28q3.631 0 5.742-2.28 2.112-2.323 2.111-6.123v-.338q0-3.8-2.111-6.08-2.11-2.322-5.742-2.322-3.588 0-5.742 2.323-2.11 2.28-2.111 6.08v.337q0 3.8 2.111 6.123 2.154 2.28 5.742 2.28m-24.217 1.689v-20.52h2.449v2.575h.507q.591-1.393 1.731-2.026 1.182-.634 3.251-.634h2.407v2.365h-2.703q-2.322 0-3.715 1.308-1.393 1.31-1.393 4.096v12.836zm-25.401 0V45h10.935q2.619 0 4.687 1.013 2.11.971 3.336 2.83 1.224 1.857 1.224 4.517v.507q0 2.66-1.267 4.56-1.224 1.857-3.335 2.828-2.069.972-4.645.972h-8.233v12.328zm2.702-14.778h7.938q3.167 0 4.982-1.562 1.858-1.563 1.858-4.392v-.422q0-2.872-1.816-4.39-1.773-1.563-5.024-1.563h-7.938zm-43.065 14.778v-2.45h4.222V47.45h-4.222V45h14.651q2.534 0 4.518.929 1.984.93 3.082 2.618 1.14 1.646 1.14 3.842v.338q0 2.069-.802 3.42t-1.942 2.11-2.238 1.099v.506q1.098.254 2.238 1.056 1.182.76 1.942 2.11.802 1.353.802 3.42v.423q0 2.407-1.182 4.138-1.14 1.73-3.167 2.66-1.985.886-4.518.886zm6.924-2.45h7.347q3.167 0 4.771-1.477 1.647-1.477 1.647-3.97v-.337q0-2.49-1.647-3.969-1.604-1.477-4.771-1.477h-7.347zm0-13.68h7.516q2.913 0 4.56-1.435 1.689-1.478 1.689-3.842v-.422q0-2.365-1.689-3.8-1.647-1.478-4.56-1.478h-7.516zm-33.767 16.13v-2.45h4.222V47.45h-4.222V45h11.231q5.785 0 8.994 2.956 3.25 2.913 3.251 9.12v5.446q0 6.207-3.251 9.12-3.21 2.913-8.994 2.913zm6.925-2.45h4.306q4.645 0 7.094-2.237 2.448-2.238 2.449-7.22v-5.7q0-5.025-2.449-7.22-2.449-2.238-7.094-2.238h-4.306zm-17.307 2.449q-1.647 0-2.492-.844-.802-.844-.802-2.364V56.316h-6.586v-2.28h6.586V46.35h2.534v7.685h7.177v2.28h-7.177v14.693q0 1.266 1.266 1.266h4.814v2.28zm-32.707.001v-20.52h2.449v3.8h.506q.76-1.647 2.491-2.914 1.731-1.309 5.025-1.309 2.238 0 4.095.93 1.858.928 2.956 2.828 1.14 1.858 1.14 4.687v12.498H356.8v-12.33q0-3.377-1.689-4.855t-4.518-1.478q-3.167 0-5.278 2.111-2.11 2.07-2.111 6.292v10.26zm-15.777.591q-3.166 0-5.531-1.31-2.322-1.35-3.631-3.757t-1.309-5.531v-.507q0-3.167 1.309-5.531 1.31-2.407 3.589-3.716 2.322-1.35 5.278-1.35 2.871 0 5.067 1.224 2.237 1.182 3.504 3.462 1.267 2.239 1.267 5.362v1.351h-17.48q.126 3.843 2.322 5.954 2.238 2.069 5.615 2.069 2.872 0 4.434-1.31a8.6 8.6 0 0 0 2.449-3.208l2.28 1.013q-.634 1.393-1.774 2.745-1.098 1.308-2.871 2.195-1.773.844-4.518.844m-7.895-12.498h14.862q-.169-3.336-2.153-5.11-1.984-1.815-5.109-1.815-3.083 0-5.109 1.816-2.026 1.773-2.491 5.109m-16.406 11.908v-20.52h2.449v2.575h.506q.591-1.393 1.731-2.026 1.183-.634 3.252-.634h2.406v2.365h-2.702q-2.322 0-3.716 1.308-1.392 1.31-1.393 4.096v12.836zm-15.586 0v-20.52h2.449v2.575h.506q.591-1.393 1.731-2.026 1.183-.634 3.252-.634h2.406v2.365h-2.702q-2.322 0-3.716 1.308-1.392 1.31-1.393 4.096v12.836zm-17.916.422a9.2 9.2 0 0 1-4.096-.93q-1.858-.927-2.998-2.786-1.097-1.9-1.097-4.729V54.035h2.533v12.33q0 3.335 1.689 4.855 1.689 1.478 4.518 1.478 3.167 0 5.277-2.07 2.112-2.11 2.112-6.332v-10.26h2.533v20.52h-2.449v-3.8h-.507q-.76 1.645-2.491 2.955-1.731 1.266-5.024 1.267M234 74.556V45h2.702v13.342h.507L250.889 45h3.8l-15.285 14.609 15.792 14.946h-3.843L237.209 60.96h-.507v13.595z"/><mask id="b" width="52" height="52" x="165" y="34" maskUnits="userSpaceOnUse" style="mask-type:luminance"><circle cx="190.898" cy="59.898" r="25.898" fill="#fff"/></mask><g fill="#fff" clip-path="url(#a)" mask="url(#b)"><path d="M165 22.3v142.737l4.287-19.329V41.628zm6.767 0v142.737l4.287-26.764v-89.21zm6.766 142.737V22.299l4.287 34.198v74.342zM185.3 22.3v142.737l4.287-41.632V63.931zm6.766 142.737V22.299l4.287 49.066v44.606zM198.833 22.3v142.737l4.287-56.501V78.799zm6.766 142.737V22.299l4.287 63.935v14.868zm11.054-71.369-4.287-71.369v142.738z"/></g><defs><clipPath id="a"><path fill="#fff" d="M165 21.813h51.797v143.71H165z"/></clipPath></defs></svg>