<svg xmlns="http://www.w3.org/2000/svg" viewBox="394 44 152 33" fill="currentColor"><path d="M407.489 74.89q-3.335 0-5.837-1.318-2.502-1.36-3.878-3.956-1.375-2.637-1.375-6.47v-6.51q0-5.771 3.043-8.737 3.086-3.008 8.214-3.008 5.087 0 7.672 2.802 2.627 2.802 2.627 7.459v.206h-2.669v-.289q0-2.265-.792-3.997-.792-1.772-2.502-2.761-1.667-1.03-4.336-1.03-4.045 0-6.337 2.431-2.252 2.43-2.252 6.84v6.676q0 4.41 2.252 6.841 2.293 2.432 6.337 2.432 3.962 0 5.837-2.267 1.877-2.266 1.877-6.099v-.824h-9.632v-2.308h12.217v13.31h-2.419v-3.255h-.5q-.5.99-1.418 1.896-.916.866-2.418 1.4-1.46.537-3.711.537m23.607-.001q-2.126 0-3.878-.7-1.709-.742-2.71-2.143t-1-3.379q0-2.02 1-3.338t2.71-1.978 3.795-.66h7.421v-1.606q0-2.432-1.417-3.791-1.418-1.36-4.128-1.36-2.669 0-4.253 1.318-1.542 1.278-2.085 3.462l-2.418-.7a9.3 9.3 0 0 1 1.584-3.174q1.085-1.442 2.877-2.266 1.794-.866 4.295-.866 3.836 0 5.921 1.978 2.126 1.979 2.126 5.522v9.726q0 1.236 1.167 1.236h1.96v2.143h-2.668q-1.293 0-2.043-.742-.751-.783-.751-2.102v-.288h-.417a9 9 0 0 1-1.417 1.772q-.834.866-2.21 1.4-1.377.537-3.461.537m.167-2.225q3.21 0 5.17-1.895 2.001-1.937 2.001-5.44v-.494h-7.38q-2.168 0-3.627.948-1.418.906-1.418 2.843t1.46 3.008q1.5 1.03 3.794 1.03m20.553 1.648V56.512h-6.671v-2.226h6.671V48.6q0-1.483.792-2.307.834-.825 2.46-.825h5.004v2.226h-4.503q-1.251 0-1.251 1.236v5.357h5.503v2.225h-5.503v17.803zm13.342 0V56.512h-5.337v-2.226h5.337V48.6q0-1.483.793-2.307.834-.825 2.46-.825h5.003v2.226h-4.503q-1.251 0-1.251 1.236v5.357h6.838v2.225h-6.838v17.803zm22.446.576q-3.128 0-5.462-1.277a9.34 9.34 0 0 1-3.586-3.667q-1.293-2.35-1.292-5.399v-.494q0-3.09 1.292-5.399 1.293-2.349 3.544-3.626 2.293-1.32 5.212-1.319 2.835 0 5.003 1.195 2.21 1.155 3.461 3.38 1.251 2.184 1.251 5.233v1.319h-17.262q.126 3.75 2.293 5.81 2.21 2.02 5.546 2.02 2.835 0 4.378-1.278a8.4 8.4 0 0 0 2.418-3.132l2.252.989q-.626 1.36-1.752 2.679-1.083 1.277-2.835 2.142-1.75.825-4.461.825m-7.797-12.197h14.676q-.167-3.256-2.126-4.986-1.96-1.773-5.045-1.772-3.044 0-5.045 1.772-2.001 1.73-2.46 4.986m23.376 11.62V54.286h2.419V56.8h.5q.584-1.36 1.709-1.978 1.168-.618 3.211-.618h2.377v2.307h-2.669q-2.293 0-3.669 1.278t-1.376 3.997v12.528z"/></svg>
